<?xml version="1.0" encoding="utf-8"?>
<!-- Generator: Adobe Illustrator 24.3.0, SVG Export Plug-In . SVG Version: 6.00 Build 0)  -->
<svg version="1.1" id="Layer_1" xmlns="http://www.w3.org/2000/svg" xmlns:xlink="http://www.w3.org/1999/xlink" x="0px" y="0px"
	 viewBox="0 0 248.05 27.9" style="enable-background:new 0 0 248.05 27.9;" xml:space="preserve">
<style type="text/css">
	.st0{fill:#8A2432;}
</style>
<g>
	<path class="st0" d="M78.05,9.13v11.34c0,4.83,2.8,7.07,7.57,7.07c4.8,0,7.6-2.24,7.6-7.07V9.13c0-1.37,0.19-1.47,1.47-1.59V7.11
		c-0.97,0-1.93,0.18-2.77,0.18c-1.59,0-2.59-0.18-3.55-0.18v0.44c0.68,0.03,1.81,0.22,1.81,1.34v12.18c0,3.31-1.99,4.93-4.55,4.93
		c-2.52,0-4.51-1.62-4.51-4.93V8.89c0-1.12,1.12-1.31,1.81-1.34V7.11c-0.97,0-1.96,0.18-3.55,0.18c-0.84,0-1.81-0.18-2.77-0.18v0.44
		C77.86,7.67,78.05,7.76,78.05,9.13z"/>
	<path class="st0" d="M102.54,27.23V26.8c-1.68-0.28-2.18-0.74-2.18-2.84V10.54h0.06l12.12,16.7h1.84V8.86
		c0-0.87,0.38-1.12,1.59-1.31V7.11c-1.03,0-2.06,0.18-3.09,0.18c-0.87,0-1.75-0.18-2.62-0.18v0.44c1.68,0.28,2.18,0.75,2.18,2.83
		v11.28h-0.06L101.8,7.11c-0.78,0-1.46,0.18-2.3,0.18c-0.88,0-1.78-0.18-2.65-0.18v0.44c1.21,0.19,1.59,0.44,1.59,1.31v16.63
		c0,0.87-0.37,1.12-1.59,1.31v0.43c1.02,0,2.06-0.19,3.09-0.19C100.8,27.04,101.67,27.23,102.54,27.23z"/>
	<path class="st0" d="M125.24,27.23V26.8c-1.21-0.18-1.59-0.44-1.59-1.31V8.86c0-0.87,0.37-1.12,1.59-1.31V7.11
		c-0.65,0-1.93,0.18-3.11,0.18c-1.19,0-2.46-0.18-3.11-0.18v0.44c1.22,0.19,1.59,0.44,1.59,1.31v16.63c0,0.87-0.37,1.12-1.59,1.31
		v0.43c0.65,0,1.93-0.19,3.11-0.19C123.32,27.04,124.59,27.23,125.24,27.23z"/>
	<path class="st0" d="M128.1,8.95l6.86,18.28h2.08l6.11-18c0.31-0.93,0.87-1.56,1.87-1.68V7.11c-0.78,0-1.56,0.18-2.33,0.18
		c-0.94,0-1.9-0.18-2.83-0.18v0.44c0.62,0.12,1.46,0.31,1.46,0.93c0,0.38-0.16,0.97-0.4,1.75l-4.46,13.4h-0.06L131.4,9.79
		c-0.13-0.34-0.34-1-0.34-1.34c0-0.58,0.41-0.86,1.59-0.9V7.11c-0.94,0-1.8,0.18-2.71,0.18c-1.25,0-2.52-0.18-3.77-0.18v0.44
		C127.57,7.67,127.82,8.26,128.1,8.95z"/>
	<path class="st0" d="M162.01,21.94h-0.59c-0.56,2.84-1.69,3.37-4.3,3.37h-6.6v-7.85h4.42c1.12,0,1.74,0.09,1.96,1.81h0.62
		c-0.1-0.91-0.18-1.74-0.18-2.71c0-0.91,0.09-1.74,0.18-2.65h-0.62c-0.22,1.72-0.84,1.81-1.96,1.81h-4.42V9.05h7.13
		c1.38,0,2.43,0.37,2.81,2.86h0.62c-0.12-1.53-0.18-3.09-0.18-4.61h-15.02v0.45c1.22,0.18,1.59,0.43,1.59,1.31V25.3
		c0,0.87-0.37,1.12-1.59,1.31v0.43h15.83C161.73,25.33,161.85,23.65,162.01,21.94z"/>
	<path class="st0" d="M171.29,27.23V26.8c-1.22-0.18-1.59-0.44-1.59-1.31V9.05h1.69c2.61,0,5.26,0.43,5.26,3.39
		c0,2.74-2.28,4.08-5.52,4.08c-0.25,0-0.59,0.12-0.59,0.3c0,0.12,0.25,0.41,0.61,0.91l4.02,5.39c2.53,3.52,2.84,4.01,3.18,4.11
		c0.78,0,1.59-0.19,2.4-0.19c0.53,0,1.06,0.19,1.63,0.19V26.8c-0.91-0.1-1.69-0.87-2.62-2.06l-5.73-7.41
		c2.99-0.25,5.67-2.12,5.67-5.3c0-2.59-1.47-4.75-5.6-4.75h-9.04v0.45c1.22,0.18,1.59,0.43,1.59,1.31v16.44
		c0,0.87-0.37,1.12-1.59,1.31v0.43c0.65,0,1.94-0.19,3.12-0.19C169.36,27.04,170.63,27.23,171.29,27.23z"/>
	<path class="st0" d="M192.18,18.39c2.15,0.44,3.64,0.93,3.64,3.43c0,2.77-2.58,3.99-4.85,3.99c-3.05,0-5.36-1.56-6.11-4.55h-0.62
		c0.12,1.62,0.19,3.21,0.19,4.83c1.78,1.09,3.74,1.46,5.67,1.46c5.79,0,8.41-2.93,8.41-6.39c0-4.14-2.95-4.93-6.85-5.7
		c-3.83-0.78-5.05-1.12-5.05-3.36c0-1.97,1.72-3.55,5.08-3.55c2.18,0,4.73,0.9,5.17,3.6h0.62c-0.09-1.43-0.15-2.9-0.12-4.33
		c-1.12-0.69-3.87-1.02-5.17-1.02c-5.01,0-8.26,2.67-8.26,5.76C183.93,16.36,186.82,17.33,192.18,18.39z"/>
	<path class="st0" d="M207.47,27.23V26.8c-1.21-0.18-1.59-0.44-1.59-1.31V8.86c0-0.87,0.38-1.12,1.59-1.31V7.11
		c-0.65,0-1.93,0.18-3.11,0.18c-1.19,0-2.46-0.18-3.12-0.18v0.44c1.22,0.19,1.59,0.44,1.59,1.31v16.63c0,0.87-0.37,1.12-1.59,1.31
		v0.43c0.66,0,1.93-0.19,3.12-0.19C205.54,27.04,206.82,27.23,207.47,27.23z"/>
	<path class="st0" d="M211.86,9.05h2.87v15.95c0,1.07-0.38,1.62-1.96,1.81v0.43c1.21,0,2.56-0.19,3.49-0.19
		c0.93,0,2.27,0.19,3.48,0.19V26.8c-1.58-0.18-1.96-0.74-1.96-1.81V9.05h2.87c1.74,0,2.62,0.56,3.17,3.36h0.62
		c-0.22-1.71-0.4-3.39-0.5-5.11h-15.39c-0.09,1.72-0.28,3.4-0.49,5.11h0.62C209.25,9.6,210.12,9.05,211.86,9.05z"/>
	<path class="st0" d="M239.79,9.63c0.75-1.49,1.16-2.02,2.34-2.08V7.11c-0.99,0-1.74,0.18-2.49,0.18c-1,0-2.24-0.18-3.05-0.18v0.44
		c1.06,0.06,1.5,0.28,1.5,0.81c0,0.25,0,0.56-0.22,1.05l-3.96,8.35l-4.24-8.29c-0.28-0.56-0.38-0.9-0.38-1.21
		c0-0.5,0.47-0.68,1.46-0.71V7.11c-1.09,0-2.15,0.18-3.21,0.18c-1.1,0-2.18-0.18-3.3-0.18v0.44c1.12,0.19,1.52,0.69,2.02,1.59
		l5.61,10.28v5.57c0,1.07-0.38,1.62-1.97,1.81v0.43c1.22,0,2.56-0.19,3.49-0.19c0.94,0,2.28,0.19,3.49,0.19V26.8
		c-1.59-0.18-1.96-0.74-1.96-1.81v-5.57L239.79,9.63z"/>
	<path class="st0" d="M43.76,27.9c6.18,0,10.13-5.27,10.13-10.64c0-4.55-2.75-10.13-9.66-10.13C39.39,7.13,34,11.46,34,17.58
		C34,23.22,37.49,27.9,43.76,27.9z M43.33,9.25c3.96,0,7.7,3.68,7.7,9.14c0,4.96-3.21,7.39-6.52,7.39c-4.8,0-7.64-4.59-7.64-8.99
		C36.87,11.05,41.05,9.25,43.33,9.25z"/>
	<path class="st0" d="M53.54,9.46l5.61,10.29v5.58c0,1.06-0.38,1.62-1.96,1.81v0.44c1.21,0,2.55-0.18,3.49-0.18
		c0.94,0,2.28,0.18,3.49,0.18v-0.44c-1.6-0.18-1.96-0.75-1.96-1.81v-5.58l4.86-9.8c0.74-1.49,1.15-2.02,2.33-2.09V7.43
		c-0.99,0-1.74,0.19-2.49,0.19c-1,0-2.24-0.19-3.05-0.19v0.44c1.06,0.06,1.5,0.28,1.5,0.81c0,0.24,0,0.56-0.22,1.06l-3.96,8.36
		l-4.24-8.29c-0.28-0.57-0.37-0.91-0.37-1.22c0-0.5,0.46-0.68,1.46-0.71V7.43c-1.09,0-2.15,0.19-3.21,0.19
		c-1.1,0-2.19-0.19-3.31-0.19v0.44C52.63,8.06,53.04,8.56,53.54,9.46z"/>
	<path class="st0" d="M9.2,24.42c0,1.46-0.52,2.23-2.71,2.49v0.6c1.68,0,3.53-0.26,4.81-0.26c1.29,0,3.14,0.35,4.82,0.35
		c0,0,1.59,0.01,2.33-0.03c0.65,0,1.93-0.18,3.11-0.18c1.19,0,2.47,0.18,3.12,0.18V27c-1.22-0.19-1.59-0.44-1.59-1.31V9.37h1.68
		c2.62,0,5.27,0.45,5.27,3.4c0,2.75-2.28,4.09-5.52,4.09c-0.25,0-0.59,0.12-0.59,0.3c0,0.12,0.25,0.41,0.62,0.91l4.02,5.39
		c2.53,3.52,2.84,4.03,3.18,4.12c0.78,0,1.59-0.18,2.4-0.18c0.53,0,1.06,0.18,1.62,0.18v-0.44c-0.91-0.09-1.68-0.87-2.62-2.06
		l-5.74-7.42c2.99-0.24,5.67-2.12,5.67-5.29c0-2.59-1.46-4.75-5.61-4.75h-9.04v0.44c1.21,0.19,1.59,0.43,1.59,1.31v15.19
		c0,1.5-0.58,2.11-2.33,2.4c-0.83,0.09-1.59-0.04-1.59-0.04c-2.19-0.26-2.7-0.86-2.71-2.36V2.41h3.95c2.41,0,3.62,0.78,4.39,4.65
		h0.87C22.31,4.68,22.06,2.36,21.93,0H0.69C0.56,2.36,0.3,4.68,0,7.06h0.86c0.77-3.87,1.98-4.65,4.38-4.65H9.2V24.42z"/>
	<polygon class="st0" points="240.08,23.08 241.46,23.08 241.46,27.23 241.95,27.23 241.95,23.08 243.4,23.08 243.4,22.58 
		240.08,22.58 	"/>
	<polygon class="st0" points="247.25,22.58 246.06,26.37 244.86,22.58 244.06,22.58 244.06,27.23 244.56,27.23 244.56,23.28 
		245.8,27.23 246.31,27.23 247.54,23.28 247.54,27.23 248.05,27.23 248.05,22.58 	"/>
</g>
</svg>
